<mxfile host="app.diagrams.net" agent="Mozilla/5.0 (X11; Linux x86_64) AppleWebKit/537.36 (KHTML, like Gecko) Chrome/131.0.0.0 Safari/537.36" version="26.0.5">
  <diagram name="Page-1" id="8js4nfwX36cDhiWd0nQg">
    <mxGraphModel dx="-1050" dy="3857" grid="1" gridSize="10" guides="1" tooltips="1" connect="1" arrows="1" fold="1" page="0" pageScale="1" pageWidth="850" pageHeight="1100" math="0" shadow="0">
      <root>
        <mxCell id="0" />
        <mxCell id="1" parent="0" />
        <mxCell id="_kQ2py2JBP-Ow-14BObZ-1" style="rounded=0;orthogonalLoop=1;jettySize=auto;html=1;endArrow=ERone;endFill=0;strokeWidth=1.5;exitX=1;exitY=0.5;exitDx=0;exitDy=0;" parent="1" source="_kQ2py2JBP-Ow-14BObZ-97" target="_kQ2py2JBP-Ow-14BObZ-3" edge="1">
          <mxGeometry relative="1" as="geometry" />
        </mxCell>
        <mxCell id="_kQ2py2JBP-Ow-14BObZ-2" style="rounded=0;orthogonalLoop=1;jettySize=auto;html=1;endArrow=ERone;endFill=0;strokeWidth=1.5;" parent="1" source="_kQ2py2JBP-Ow-14BObZ-12" target="_kQ2py2JBP-Ow-14BObZ-3" edge="1">
          <mxGeometry relative="1" as="geometry" />
        </mxCell>
        <mxCell id="_kQ2py2JBP-Ow-14BObZ-3" value="Admin" style="rounded=0;whiteSpace=wrap;html=1;fillColor=#a2d4e6;strokeColor=#63919f;" parent="1" vertex="1">
          <mxGeometry x="3530" y="235" width="100" height="60" as="geometry" />
        </mxCell>
        <mxCell id="_kQ2py2JBP-Ow-14BObZ-4" value="&lt;u&gt;AdminID&lt;/u&gt;" style="ellipse;whiteSpace=wrap;html=1;fillColor=#f8cecc;strokeColor=#b85450;" parent="1" vertex="1">
          <mxGeometry x="3460" y="300" width="60" height="40" as="geometry" />
        </mxCell>
        <mxCell id="_kQ2py2JBP-Ow-14BObZ-5" style="endArrow=none;endFill=0;" parent="1" source="_kQ2py2JBP-Ow-14BObZ-3" target="_kQ2py2JBP-Ow-14BObZ-4" edge="1">
          <mxGeometry relative="1" as="geometry" />
        </mxCell>
        <mxCell id="_kQ2py2JBP-Ow-14BObZ-6" value="Username" style="ellipse;whiteSpace=wrap;html=1;fillColor=#f8cecc;strokeColor=#b85450;" parent="1" vertex="1">
          <mxGeometry x="3420" y="170" width="60" height="40" as="geometry" />
        </mxCell>
        <mxCell id="_kQ2py2JBP-Ow-14BObZ-7" style="endArrow=none;endFill=0;" parent="1" source="_kQ2py2JBP-Ow-14BObZ-3" target="_kQ2py2JBP-Ow-14BObZ-6" edge="1">
          <mxGeometry relative="1" as="geometry" />
        </mxCell>
        <mxCell id="_kQ2py2JBP-Ow-14BObZ-8" value="Email" style="ellipse;whiteSpace=wrap;html=1;fillColor=#f8cecc;strokeColor=#b85450;" parent="1" vertex="1">
          <mxGeometry x="3480" y="130" width="60" height="40" as="geometry" />
        </mxCell>
        <mxCell id="_kQ2py2JBP-Ow-14BObZ-9" style="endArrow=none;endFill=0;" parent="1" source="_kQ2py2JBP-Ow-14BObZ-3" target="_kQ2py2JBP-Ow-14BObZ-8" edge="1">
          <mxGeometry relative="1" as="geometry" />
        </mxCell>
        <mxCell id="_kQ2py2JBP-Ow-14BObZ-10" value="Password" style="ellipse;whiteSpace=wrap;html=1;fillColor=#f8cecc;strokeColor=#b85450;" parent="1" vertex="1">
          <mxGeometry x="3630" y="150" width="60" height="40" as="geometry" />
        </mxCell>
        <mxCell id="_kQ2py2JBP-Ow-14BObZ-11" style="endArrow=none;endFill=0;" parent="1" source="_kQ2py2JBP-Ow-14BObZ-3" target="_kQ2py2JBP-Ow-14BObZ-10" edge="1">
          <mxGeometry relative="1" as="geometry" />
        </mxCell>
        <mxCell id="_kQ2py2JBP-Ow-14BObZ-12" value="Manages" style="rhombus;whiteSpace=wrap;html=1;fillColor=#ffff88;strokeColor=#36393d;" parent="1" vertex="1">
          <mxGeometry x="3722.5" y="235" width="80" height="60" as="geometry" />
        </mxCell>
        <mxCell id="_kQ2py2JBP-Ow-14BObZ-13" style="rounded=0;orthogonalLoop=1;jettySize=auto;html=1;endArrow=ERmany;endFill=0;exitX=0;exitY=0.5;exitDx=0;exitDy=0;strokeWidth=1.5;" parent="1" source="_kQ2py2JBP-Ow-14BObZ-66" target="_kQ2py2JBP-Ow-14BObZ-18" edge="1">
          <mxGeometry relative="1" as="geometry" />
        </mxCell>
        <mxCell id="_kQ2py2JBP-Ow-14BObZ-14" style="rounded=0;orthogonalLoop=1;jettySize=auto;html=1;endArrow=ERmany;endFill=0;exitX=0.5;exitY=0;exitDx=0;exitDy=0;strokeWidth=1.5;" parent="1" source="_kQ2py2JBP-Ow-14BObZ-103" target="_kQ2py2JBP-Ow-14BObZ-18" edge="1">
          <mxGeometry relative="1" as="geometry" />
        </mxCell>
        <mxCell id="_kQ2py2JBP-Ow-14BObZ-15" style="rounded=0;orthogonalLoop=1;jettySize=auto;html=1;endArrow=ERmany;endFill=0;exitX=1;exitY=0.5;exitDx=0;exitDy=0;strokeWidth=1.5;" parent="1" source="_kQ2py2JBP-Ow-14BObZ-12" target="_kQ2py2JBP-Ow-14BObZ-18" edge="1">
          <mxGeometry relative="1" as="geometry" />
        </mxCell>
        <mxCell id="_kQ2py2JBP-Ow-14BObZ-16" style="rounded=0;orthogonalLoop=1;jettySize=auto;html=1;entryX=0;entryY=0.5;entryDx=0;entryDy=0;endArrow=none;endFill=0;" parent="1" source="_kQ2py2JBP-Ow-14BObZ-18" target="_kQ2py2JBP-Ow-14BObZ-148" edge="1">
          <mxGeometry relative="1" as="geometry" />
        </mxCell>
        <mxCell id="_kQ2py2JBP-Ow-14BObZ-17" style="rounded=0;orthogonalLoop=1;jettySize=auto;html=1;endArrow=ERone;endFill=0;exitX=0.527;exitY=0.103;exitDx=0;exitDy=0;exitPerimeter=0;" parent="1" source="_kQ2py2JBP-Ow-14BObZ-151" target="_kQ2py2JBP-Ow-14BObZ-18" edge="1">
          <mxGeometry relative="1" as="geometry">
            <mxPoint x="4340" y="240" as="sourcePoint" />
          </mxGeometry>
        </mxCell>
        <mxCell id="_kQ2py2JBP-Ow-14BObZ-18" value="Book" style="rounded=0;whiteSpace=wrap;html=1;fillColor=#a2d4e6;strokeColor=#63919f;" parent="1" vertex="1">
          <mxGeometry x="3920" y="230" width="100" height="60" as="geometry" />
        </mxCell>
        <mxCell id="_kQ2py2JBP-Ow-14BObZ-19" value="&lt;u&gt;BookID&lt;/u&gt;" style="ellipse;whiteSpace=wrap;html=1;fillColor=#f8cecc;strokeColor=#b85450;" parent="1" vertex="1">
          <mxGeometry x="3790" y="180" width="60" height="40" as="geometry" />
        </mxCell>
        <mxCell id="_kQ2py2JBP-Ow-14BObZ-20" style="endArrow=none;endFill=0;" parent="1" source="_kQ2py2JBP-Ow-14BObZ-18" target="_kQ2py2JBP-Ow-14BObZ-19" edge="1">
          <mxGeometry relative="1" as="geometry" />
        </mxCell>
        <mxCell id="_kQ2py2JBP-Ow-14BObZ-21" value="Title" style="ellipse;whiteSpace=wrap;html=1;fillColor=#f8cecc;strokeColor=#b85450;" parent="1" vertex="1">
          <mxGeometry x="4050" y="170" width="60" height="40" as="geometry" />
        </mxCell>
        <mxCell id="_kQ2py2JBP-Ow-14BObZ-22" style="endArrow=none;endFill=0;" parent="1" source="_kQ2py2JBP-Ow-14BObZ-18" target="_kQ2py2JBP-Ow-14BObZ-21" edge="1">
          <mxGeometry relative="1" as="geometry" />
        </mxCell>
        <mxCell id="_kQ2py2JBP-Ow-14BObZ-23" value="ISBN" style="ellipse;whiteSpace=wrap;html=1;fillColor=#f8cecc;strokeColor=#b85450;" parent="1" vertex="1">
          <mxGeometry x="3900" y="110" width="60" height="40" as="geometry" />
        </mxCell>
        <mxCell id="_kQ2py2JBP-Ow-14BObZ-24" style="endArrow=none;endFill=0;" parent="1" source="_kQ2py2JBP-Ow-14BObZ-18" target="_kQ2py2JBP-Ow-14BObZ-23" edge="1">
          <mxGeometry relative="1" as="geometry" />
        </mxCell>
        <mxCell id="_kQ2py2JBP-Ow-14BObZ-25" value="Price" style="ellipse;whiteSpace=wrap;html=1;fillColor=#f8cecc;strokeColor=#b85450;" parent="1" vertex="1">
          <mxGeometry x="3840" y="140" width="60" height="40" as="geometry" />
        </mxCell>
        <mxCell id="_kQ2py2JBP-Ow-14BObZ-26" style="endArrow=none;endFill=0;" parent="1" source="_kQ2py2JBP-Ow-14BObZ-18" target="_kQ2py2JBP-Ow-14BObZ-25" edge="1">
          <mxGeometry relative="1" as="geometry" />
        </mxCell>
        <mxCell id="_kQ2py2JBP-Ow-14BObZ-27" value="Author" style="ellipse;whiteSpace=wrap;html=1;fillColor=#f8cecc;strokeColor=#b85450;" parent="1" vertex="1">
          <mxGeometry x="4040" y="120" width="60" height="40" as="geometry" />
        </mxCell>
        <mxCell id="_kQ2py2JBP-Ow-14BObZ-28" style="endArrow=none;endFill=0;" parent="1" source="_kQ2py2JBP-Ow-14BObZ-18" target="_kQ2py2JBP-Ow-14BObZ-27" edge="1">
          <mxGeometry relative="1" as="geometry" />
        </mxCell>
        <mxCell id="_kQ2py2JBP-Ow-14BObZ-29" style="rounded=0;orthogonalLoop=1;jettySize=auto;html=1;endArrow=ERone;endFill=0;" parent="1" target="_kQ2py2JBP-Ow-14BObZ-32" edge="1">
          <mxGeometry relative="1" as="geometry">
            <mxPoint x="3845" y="870" as="sourcePoint" />
          </mxGeometry>
        </mxCell>
        <mxCell id="_kQ2py2JBP-Ow-14BObZ-30" style="rounded=0;orthogonalLoop=1;jettySize=auto;html=1;entryX=0;entryY=0.75;entryDx=0;entryDy=0;endArrow=ERone;endFill=0;exitX=0.5;exitY=1;exitDx=0;exitDy=0;" parent="1" source="_kQ2py2JBP-Ow-14BObZ-110" target="_kQ2py2JBP-Ow-14BObZ-32" edge="1">
          <mxGeometry relative="1" as="geometry">
            <mxPoint x="3740" y="960" as="targetPoint" />
          </mxGeometry>
        </mxCell>
        <mxCell id="_kQ2py2JBP-Ow-14BObZ-31" style="rounded=0;orthogonalLoop=1;jettySize=auto;html=1;entryX=0.334;entryY=0.138;entryDx=0;entryDy=0;entryPerimeter=0;endArrow=none;endFill=0;" parent="1" source="_kQ2py2JBP-Ow-14BObZ-32" target="_kQ2py2JBP-Ow-14BObZ-156" edge="1">
          <mxGeometry relative="1" as="geometry">
            <mxPoint x="3950" y="960" as="targetPoint" />
          </mxGeometry>
        </mxCell>
        <mxCell id="_kQ2py2JBP-Ow-14BObZ-32" value="Payment" style="rounded=0;whiteSpace=wrap;html=1;fillColor=#a2d4e6;strokeColor=#63919f;" parent="1" vertex="1">
          <mxGeometry x="3750" y="920" width="100" height="60" as="geometry" />
        </mxCell>
        <mxCell id="_kQ2py2JBP-Ow-14BObZ-33" value="&lt;u&gt;PaymtID&lt;/u&gt;" style="ellipse;whiteSpace=wrap;html=1;fillColor=#f8cecc;strokeColor=#b85450;" parent="1" vertex="1">
          <mxGeometry x="3645" y="1000" width="60" height="40" as="geometry" />
        </mxCell>
        <mxCell id="_kQ2py2JBP-Ow-14BObZ-34" style="endArrow=none;endFill=0;" parent="1" source="_kQ2py2JBP-Ow-14BObZ-32" target="_kQ2py2JBP-Ow-14BObZ-33" edge="1">
          <mxGeometry relative="1" as="geometry" />
        </mxCell>
        <mxCell id="_kQ2py2JBP-Ow-14BObZ-35" value="Amount" style="ellipse;whiteSpace=wrap;html=1;fillColor=#f8cecc;strokeColor=#b85450;" parent="1" vertex="1">
          <mxGeometry x="3900" y="990" width="60" height="40" as="geometry" />
        </mxCell>
        <mxCell id="_kQ2py2JBP-Ow-14BObZ-36" style="endArrow=none;endFill=0;" parent="1" source="_kQ2py2JBP-Ow-14BObZ-32" target="_kQ2py2JBP-Ow-14BObZ-35" edge="1">
          <mxGeometry relative="1" as="geometry" />
        </mxCell>
        <mxCell id="_kQ2py2JBP-Ow-14BObZ-37" value="PhoneNumber" style="ellipse;whiteSpace=wrap;html=1;fillColor=#f8cecc;strokeColor=#b85450;" parent="1" vertex="1">
          <mxGeometry x="3815" y="1040" width="80" height="40" as="geometry" />
        </mxCell>
        <mxCell id="_kQ2py2JBP-Ow-14BObZ-38" style="endArrow=none;endFill=0;" parent="1" source="_kQ2py2JBP-Ow-14BObZ-32" target="_kQ2py2JBP-Ow-14BObZ-37" edge="1">
          <mxGeometry relative="1" as="geometry" />
        </mxCell>
        <mxCell id="_kQ2py2JBP-Ow-14BObZ-39" value="transID" style="ellipse;whiteSpace=wrap;html=1;fillColor=#ffcccc;strokeColor=#36393d;" parent="1" vertex="1">
          <mxGeometry x="3700" y="1030" width="80" height="40" as="geometry" />
        </mxCell>
        <mxCell id="_kQ2py2JBP-Ow-14BObZ-40" style="endArrow=none;endFill=0;" parent="1" source="_kQ2py2JBP-Ow-14BObZ-32" target="_kQ2py2JBP-Ow-14BObZ-39" edge="1">
          <mxGeometry relative="1" as="geometry" />
        </mxCell>
        <mxCell id="_kQ2py2JBP-Ow-14BObZ-41" style="rounded=0;orthogonalLoop=1;jettySize=auto;html=1;endArrow=ERmany;endFill=0;exitX=0;exitY=1;exitDx=0;exitDy=0;" parent="1" source="_kQ2py2JBP-Ow-14BObZ-105" target="_kQ2py2JBP-Ow-14BObZ-43" edge="1">
          <mxGeometry relative="1" as="geometry">
            <mxPoint x="3500" y="560" as="sourcePoint" />
          </mxGeometry>
        </mxCell>
        <mxCell id="_kQ2py2JBP-Ow-14BObZ-42" style="rounded=0;orthogonalLoop=1;jettySize=auto;html=1;endArrow=ERone;endFill=0;exitX=0.5;exitY=1;exitDx=0;exitDy=0;" parent="1" source="_kQ2py2JBP-Ow-14BObZ-108" target="_kQ2py2JBP-Ow-14BObZ-43" edge="1">
          <mxGeometry relative="1" as="geometry">
            <mxPoint x="3310" y="600" as="sourcePoint" />
          </mxGeometry>
        </mxCell>
        <mxCell id="_kQ2py2JBP-Ow-14BObZ-43" value="Customer" style="rounded=0;whiteSpace=wrap;html=1;fillColor=#a2d4e6;strokeColor=#63919f;" parent="1" vertex="1">
          <mxGeometry x="3420" y="670" width="90" height="50" as="geometry" />
        </mxCell>
        <mxCell id="_kQ2py2JBP-Ow-14BObZ-44" value="&lt;u&gt;CustomerID&lt;/u&gt;" style="ellipse;whiteSpace=wrap;html=1;fillColor=#f8cecc;strokeColor=#b85450;" parent="1" vertex="1">
          <mxGeometry x="3310" y="710" width="70" height="50" as="geometry" />
        </mxCell>
        <mxCell id="_kQ2py2JBP-Ow-14BObZ-45" style="endArrow=none;endFill=0;" parent="1" source="_kQ2py2JBP-Ow-14BObZ-43" target="_kQ2py2JBP-Ow-14BObZ-44" edge="1">
          <mxGeometry relative="1" as="geometry" />
        </mxCell>
        <mxCell id="_kQ2py2JBP-Ow-14BObZ-46" value="Name" style="ellipse;whiteSpace=wrap;html=1;fillColor=#f8cecc;strokeColor=#b85450;" parent="1" vertex="1">
          <mxGeometry x="3390" y="570" width="60" height="40" as="geometry" />
        </mxCell>
        <mxCell id="_kQ2py2JBP-Ow-14BObZ-47" style="endArrow=none;endFill=0;" parent="1" source="_kQ2py2JBP-Ow-14BObZ-43" target="_kQ2py2JBP-Ow-14BObZ-46" edge="1">
          <mxGeometry relative="1" as="geometry" />
        </mxCell>
        <mxCell id="_kQ2py2JBP-Ow-14BObZ-48" value="Email" style="ellipse;whiteSpace=wrap;html=1;fillColor=#f8cecc;strokeColor=#b85450;" parent="1" vertex="1">
          <mxGeometry x="3460" y="570" width="60" height="40" as="geometry" />
        </mxCell>
        <mxCell id="_kQ2py2JBP-Ow-14BObZ-49" style="endArrow=none;endFill=0;" parent="1" source="_kQ2py2JBP-Ow-14BObZ-43" target="_kQ2py2JBP-Ow-14BObZ-48" edge="1">
          <mxGeometry relative="1" as="geometry" />
        </mxCell>
        <mxCell id="_kQ2py2JBP-Ow-14BObZ-50" style="rounded=0;orthogonalLoop=1;jettySize=auto;html=1;entryX=0;entryY=0.5;entryDx=0;entryDy=0;endArrow=ERmany;endFill=0;strokeWidth=1.5;" parent="1" source="_kQ2py2JBP-Ow-14BObZ-51" target="_kQ2py2JBP-Ow-14BObZ-76" edge="1">
          <mxGeometry relative="1" as="geometry">
            <mxPoint x="3830" y="695" as="targetPoint" />
          </mxGeometry>
        </mxCell>
        <mxCell id="_kQ2py2JBP-Ow-14BObZ-51" value="" style="rhombus;whiteSpace=wrap;html=1;fillColor=#ffff88;strokeColor=#36393d;" parent="1" vertex="1">
          <mxGeometry x="3600" y="660" width="100" height="70" as="geometry" />
        </mxCell>
        <mxCell id="_kQ2py2JBP-Ow-14BObZ-52" value="have" style="text;html=1;align=center;verticalAlign=middle;whiteSpace=wrap;rounded=0;" parent="1" vertex="1">
          <mxGeometry x="3620" y="680" width="60" height="30" as="geometry" />
        </mxCell>
        <mxCell id="_kQ2py2JBP-Ow-14BObZ-53" value="" style="endArrow=baseDash;html=1;rounded=0;entryX=0;entryY=0.5;entryDx=0;entryDy=0;endFill=0;strokeWidth=1.5;" parent="1" target="_kQ2py2JBP-Ow-14BObZ-51" edge="1">
          <mxGeometry width="50" height="50" relative="1" as="geometry">
            <mxPoint x="3510" y="695" as="sourcePoint" />
            <mxPoint x="3600" y="560" as="targetPoint" />
          </mxGeometry>
        </mxCell>
        <mxCell id="_kQ2py2JBP-Ow-14BObZ-54" value="" style="rhombus;whiteSpace=wrap;html=1;fillColor=#ffff88;strokeColor=#36393d;" parent="1" vertex="1">
          <mxGeometry x="3545" y="880" width="100" height="60" as="geometry" />
        </mxCell>
        <mxCell id="_kQ2py2JBP-Ow-14BObZ-55" value="Makes" style="text;html=1;align=center;verticalAlign=middle;whiteSpace=wrap;rounded=0;" parent="1" vertex="1">
          <mxGeometry x="3565" y="895" width="60" height="30" as="geometry" />
        </mxCell>
        <mxCell id="_kQ2py2JBP-Ow-14BObZ-56" value="" style="endArrow=ERmany;html=1;rounded=0;entryX=0;entryY=0.5;entryDx=0;entryDy=0;exitX=1;exitY=0.5;exitDx=0;exitDy=0;endFill=0;strokeWidth=1.5;" parent="1" source="_kQ2py2JBP-Ow-14BObZ-54" target="_kQ2py2JBP-Ow-14BObZ-32" edge="1">
          <mxGeometry width="50" height="50" relative="1" as="geometry">
            <mxPoint x="3700" y="870" as="sourcePoint" />
            <mxPoint x="3750" y="820" as="targetPoint" />
          </mxGeometry>
        </mxCell>
        <mxCell id="_kQ2py2JBP-Ow-14BObZ-57" value="" style="endArrow=ERone;html=1;rounded=0;exitX=0;exitY=0.5;exitDx=0;exitDy=0;entryX=0.5;entryY=1;entryDx=0;entryDy=0;endFill=0;strokeWidth=1.5;" parent="1" source="_kQ2py2JBP-Ow-14BObZ-54" target="_kQ2py2JBP-Ow-14BObZ-43" edge="1">
          <mxGeometry width="50" height="50" relative="1" as="geometry">
            <mxPoint x="3750" y="820" as="sourcePoint" />
            <mxPoint x="3700" y="870" as="targetPoint" />
          </mxGeometry>
        </mxCell>
        <mxCell id="_kQ2py2JBP-Ow-14BObZ-58" style="rounded=0;orthogonalLoop=1;jettySize=auto;html=1;curved=1;strokeColor=default;endArrow=ERmany;endFill=0;exitX=1;exitY=0.5;exitDx=0;exitDy=0;strokeWidth=1.5;" parent="1" source="_kQ2py2JBP-Ow-14BObZ-66" target="_kQ2py2JBP-Ow-14BObZ-61" edge="1">
          <mxGeometry relative="1" as="geometry" />
        </mxCell>
        <mxCell id="_kQ2py2JBP-Ow-14BObZ-59" style="rounded=0;orthogonalLoop=1;jettySize=auto;html=1;endArrow=ERone;endFill=0;strokeWidth=1.5;exitX=0.5;exitY=0;exitDx=0;exitDy=0;" parent="1" source="_kQ2py2JBP-Ow-14BObZ-116" target="_kQ2py2JBP-Ow-14BObZ-61" edge="1">
          <mxGeometry relative="1" as="geometry" />
        </mxCell>
        <mxCell id="_kQ2py2JBP-Ow-14BObZ-60" style="rounded=0;orthogonalLoop=1;jettySize=auto;html=1;endArrow=ERone;endFill=0;" parent="1" source="_kQ2py2JBP-Ow-14BObZ-127" target="_kQ2py2JBP-Ow-14BObZ-61" edge="1">
          <mxGeometry relative="1" as="geometry" />
        </mxCell>
        <mxCell id="_kQ2py2JBP-Ow-14BObZ-61" value="Cart" style="rounded=0;whiteSpace=wrap;html=1;fillColor=#a2d4e6;strokeColor=#63919f;" parent="1" vertex="1">
          <mxGeometry x="4130" y="390" width="80" height="60" as="geometry" />
        </mxCell>
        <mxCell id="_kQ2py2JBP-Ow-14BObZ-62" value="&lt;u&gt;CartID&lt;/u&gt;" style="ellipse;whiteSpace=wrap;html=1;fillColor=#f8cecc;strokeColor=#b85450;" parent="1" vertex="1">
          <mxGeometry x="4160" y="320" width="60" height="40" as="geometry" />
        </mxCell>
        <mxCell id="_kQ2py2JBP-Ow-14BObZ-63" style="endArrow=none;endFill=0;" parent="1" source="_kQ2py2JBP-Ow-14BObZ-61" target="_kQ2py2JBP-Ow-14BObZ-62" edge="1">
          <mxGeometry relative="1" as="geometry" />
        </mxCell>
        <mxCell id="_kQ2py2JBP-Ow-14BObZ-66" value="have" style="rhombus;whiteSpace=wrap;html=1;fillColor=#ffff88;strokeColor=#36393d;" parent="1" vertex="1">
          <mxGeometry x="4040" y="300" width="80" height="60" as="geometry" />
        </mxCell>
        <mxCell id="_kQ2py2JBP-Ow-14BObZ-67" style="rounded=0;orthogonalLoop=1;jettySize=auto;html=1;endArrow=none;endFill=0;" parent="1" source="_kQ2py2JBP-Ow-14BObZ-76" target="_kQ2py2JBP-Ow-14BObZ-83" edge="1">
          <mxGeometry relative="1" as="geometry" />
        </mxCell>
        <mxCell id="_kQ2py2JBP-Ow-14BObZ-68" style="rounded=0;orthogonalLoop=1;jettySize=auto;html=1;endArrow=none;endFill=0;" parent="1" source="_kQ2py2JBP-Ow-14BObZ-76" target="_kQ2py2JBP-Ow-14BObZ-82" edge="1">
          <mxGeometry relative="1" as="geometry" />
        </mxCell>
        <mxCell id="_kQ2py2JBP-Ow-14BObZ-70" style="rounded=0;orthogonalLoop=1;jettySize=auto;html=1;entryX=0.5;entryY=1;entryDx=0;entryDy=0;endArrow=none;endFill=0;" parent="1" source="_kQ2py2JBP-Ow-14BObZ-76" target="_kQ2py2JBP-Ow-14BObZ-77" edge="1">
          <mxGeometry relative="1" as="geometry">
            <mxPoint x="3860" y="590" as="targetPoint" />
          </mxGeometry>
        </mxCell>
        <mxCell id="_kQ2py2JBP-Ow-14BObZ-71" style="rounded=0;orthogonalLoop=1;jettySize=auto;html=1;endArrow=ERone;endFill=0;exitX=0.5;exitY=0;exitDx=0;exitDy=0;" parent="1" source="_kQ2py2JBP-Ow-14BObZ-101" target="_kQ2py2JBP-Ow-14BObZ-76" edge="1">
          <mxGeometry relative="1" as="geometry" />
        </mxCell>
        <mxCell id="_kQ2py2JBP-Ow-14BObZ-72" style="rounded=0;orthogonalLoop=1;jettySize=auto;html=1;endArrow=ERmany;endFill=0;exitX=0.5;exitY=1;exitDx=0;exitDy=0;strokeWidth=1.5;" parent="1" source="_kQ2py2JBP-Ow-14BObZ-103" target="_kQ2py2JBP-Ow-14BObZ-76" edge="1">
          <mxGeometry relative="1" as="geometry" />
        </mxCell>
        <mxCell id="_kQ2py2JBP-Ow-14BObZ-73" style="edgeStyle=orthogonalEdgeStyle;rounded=0;orthogonalLoop=1;jettySize=auto;html=1;endArrow=ERone;endFill=0;strokeWidth=1.5;" parent="1" source="_kQ2py2JBP-Ow-14BObZ-113" target="_kQ2py2JBP-Ow-14BObZ-76" edge="1">
          <mxGeometry relative="1" as="geometry" />
        </mxCell>
        <mxCell id="_kQ2py2JBP-Ow-14BObZ-74" style="rounded=0;orthogonalLoop=1;jettySize=auto;html=1;endArrow=ERone;endFill=0;strokeWidth=1.5;exitX=0.5;exitY=1;exitDx=0;exitDy=0;" parent="1" source="_kQ2py2JBP-Ow-14BObZ-116" target="_kQ2py2JBP-Ow-14BObZ-76" edge="1">
          <mxGeometry relative="1" as="geometry" />
        </mxCell>
        <mxCell id="_kQ2py2JBP-Ow-14BObZ-75" style="rounded=0;orthogonalLoop=1;jettySize=auto;html=1;entryX=0.5;entryY=1;entryDx=0;entryDy=0;endArrow=ERone;endFill=0;" parent="1" source="_kQ2py2JBP-Ow-14BObZ-76" target="_kQ2py2JBP-Ow-14BObZ-144" edge="1">
          <mxGeometry relative="1" as="geometry">
            <mxPoint x="3850" y="630" as="targetPoint" />
          </mxGeometry>
        </mxCell>
        <mxCell id="_kQ2py2JBP-Ow-14BObZ-76" value="Order" style="rounded=0;whiteSpace=wrap;html=1;fillColor=#a2d4e6;strokeColor=#63919f;" parent="1" vertex="1">
          <mxGeometry x="3900" y="700" width="100" height="50" as="geometry" />
        </mxCell>
        <mxCell id="_kQ2py2JBP-Ow-14BObZ-77" value="Amount" style="ellipse;whiteSpace=wrap;html=1;fillColor=#f8cecc;strokeColor=#b85450;" parent="1" vertex="1">
          <mxGeometry x="3990" y="600" width="60" height="40" as="geometry" />
        </mxCell>
        <mxCell id="_kQ2py2JBP-Ow-14BObZ-78" style="rounded=0;orthogonalLoop=1;jettySize=auto;html=1;entryX=0;entryY=0.5;entryDx=0;entryDy=0;endArrow=none;endFill=0;" parent="1" source="_kQ2py2JBP-Ow-14BObZ-81" target="_kQ2py2JBP-Ow-14BObZ-154" edge="1">
          <mxGeometry relative="1" as="geometry" />
        </mxCell>
        <mxCell id="_kQ2py2JBP-Ow-14BObZ-79" style="rounded=0;orthogonalLoop=1;jettySize=auto;html=1;entryX=0;entryY=1;entryDx=0;entryDy=0;endArrow=none;endFill=0;" parent="1" source="_kQ2py2JBP-Ow-14BObZ-81" target="_kQ2py2JBP-Ow-14BObZ-153" edge="1">
          <mxGeometry relative="1" as="geometry" />
        </mxCell>
        <mxCell id="_kQ2py2JBP-Ow-14BObZ-80" style="rounded=0;orthogonalLoop=1;jettySize=auto;html=1;entryX=0;entryY=0.5;entryDx=0;entryDy=0;endArrow=none;endFill=0;" parent="1" source="_kQ2py2JBP-Ow-14BObZ-81" target="_kQ2py2JBP-Ow-14BObZ-155" edge="1">
          <mxGeometry relative="1" as="geometry" />
        </mxCell>
        <mxCell id="_kQ2py2JBP-Ow-14BObZ-81" value="Address" style="ellipse;whiteSpace=wrap;html=1;fillColor=#f8cecc;strokeColor=#b85450;" parent="1" vertex="1">
          <mxGeometry x="4020" y="750" width="60" height="40" as="geometry" />
        </mxCell>
        <mxCell id="_kQ2py2JBP-Ow-14BObZ-82" value="OrderDate" style="ellipse;whiteSpace=wrap;html=1;fillColor=#f8cecc;strokeColor=#b85450;" parent="1" vertex="1">
          <mxGeometry x="4050" y="650" width="60" height="40" as="geometry" />
        </mxCell>
        <mxCell id="_kQ2py2JBP-Ow-14BObZ-83" value="&lt;u&gt;OrderID&lt;/u&gt;" style="ellipse;whiteSpace=wrap;html=1;fillColor=#f8cecc;strokeColor=#b85450;" parent="1" vertex="1">
          <mxGeometry x="3970" y="780" width="60" height="40" as="geometry" />
        </mxCell>
        <mxCell id="_kQ2py2JBP-Ow-14BObZ-84" style="rounded=0;orthogonalLoop=1;jettySize=auto;html=1;endArrow=ERmany;endFill=0;strokeWidth=1.5;exitX=0;exitY=0.5;exitDx=0;exitDy=0;" parent="1" source="_kQ2py2JBP-Ow-14BObZ-97" target="_kQ2py2JBP-Ow-14BObZ-90" edge="1">
          <mxGeometry relative="1" as="geometry" />
        </mxCell>
        <mxCell id="_kQ2py2JBP-Ow-14BObZ-85" style="rounded=0;orthogonalLoop=1;jettySize=auto;html=1;endArrow=ERmany;endFill=0;" parent="1" source="_kQ2py2JBP-Ow-14BObZ-108" target="_kQ2py2JBP-Ow-14BObZ-90" edge="1">
          <mxGeometry relative="1" as="geometry" />
        </mxCell>
        <mxCell id="_kQ2py2JBP-Ow-14BObZ-86" style="rounded=0;orthogonalLoop=1;jettySize=auto;html=1;endArrow=ERone;endFill=0;exitX=0.5;exitY=0;exitDx=0;exitDy=0;" parent="1" source="_kQ2py2JBP-Ow-14BObZ-110" target="_kQ2py2JBP-Ow-14BObZ-90" edge="1">
          <mxGeometry relative="1" as="geometry" />
        </mxCell>
        <mxCell id="_kQ2py2JBP-Ow-14BObZ-87" style="edgeStyle=orthogonalEdgeStyle;rounded=0;orthogonalLoop=1;jettySize=auto;html=1;endArrow=ERone;endFill=0;" parent="1" target="_kQ2py2JBP-Ow-14BObZ-90" edge="1">
          <mxGeometry relative="1" as="geometry">
            <mxPoint x="3120" y="1100" as="sourcePoint" />
            <Array as="points">
              <mxPoint x="3120" y="1100" />
              <mxPoint x="3110" y="1100" />
              <mxPoint x="3110" y="260" />
            </Array>
          </mxGeometry>
        </mxCell>
        <mxCell id="_kQ2py2JBP-Ow-14BObZ-90" value="Sales" style="rounded=0;whiteSpace=wrap;html=1;fillColor=#a2d4e6;strokeColor=#63919f;" parent="1" vertex="1">
          <mxGeometry x="3180" y="230" width="100" height="60" as="geometry" />
        </mxCell>
        <mxCell id="_kQ2py2JBP-Ow-14BObZ-91" value="&lt;u&gt;SalesID&lt;/u&gt;" style="ellipse;whiteSpace=wrap;html=1;fillColor=#f8cecc;strokeColor=#b85450;" parent="1" vertex="1">
          <mxGeometry x="3120" y="160" width="60" height="40" as="geometry" />
        </mxCell>
        <mxCell id="_kQ2py2JBP-Ow-14BObZ-92" style="endArrow=none;endFill=0;" parent="1" source="_kQ2py2JBP-Ow-14BObZ-90" target="_kQ2py2JBP-Ow-14BObZ-91" edge="1">
          <mxGeometry relative="1" as="geometry" />
        </mxCell>
        <mxCell id="_kQ2py2JBP-Ow-14BObZ-93" value="Quantity" style="ellipse;whiteSpace=wrap;html=1;fillColor=#f8cecc;strokeColor=#b85450;" parent="1" vertex="1">
          <mxGeometry x="3270" y="160" width="60" height="40" as="geometry" />
        </mxCell>
        <mxCell id="_kQ2py2JBP-Ow-14BObZ-94" style="endArrow=none;endFill=0;" parent="1" source="_kQ2py2JBP-Ow-14BObZ-90" target="_kQ2py2JBP-Ow-14BObZ-93" edge="1">
          <mxGeometry relative="1" as="geometry" />
        </mxCell>
        <mxCell id="_kQ2py2JBP-Ow-14BObZ-97" value="" style="rhombus;whiteSpace=wrap;html=1;fillColor=#ffff88;strokeColor=#36393d;" parent="1" vertex="1">
          <mxGeometry x="3360" y="230" width="90" height="70" as="geometry" />
        </mxCell>
        <mxCell id="_kQ2py2JBP-Ow-14BObZ-98" value="Oversees" style="text;html=1;align=center;verticalAlign=middle;whiteSpace=wrap;rounded=0;" parent="1" vertex="1">
          <mxGeometry x="3375" y="250" width="60" height="30" as="geometry" />
        </mxCell>
        <mxCell id="_kQ2py2JBP-Ow-14BObZ-100" style="rounded=0;orthogonalLoop=1;jettySize=auto;html=1;entryX=0.365;entryY=-0.026;entryDx=0;entryDy=0;entryPerimeter=0;endArrow=none;endFill=0;" parent="1" source="_kQ2py2JBP-Ow-14BObZ-76" target="_kQ2py2JBP-Ow-14BObZ-81" edge="1">
          <mxGeometry relative="1" as="geometry" />
        </mxCell>
        <mxCell id="_kQ2py2JBP-Ow-14BObZ-101" value="" style="rhombus;whiteSpace=wrap;html=1;fillColor=#ffff88;strokeColor=#36393d;" parent="1" vertex="1">
          <mxGeometry x="3795" y="800" width="100" height="70" as="geometry" />
        </mxCell>
        <mxCell id="_kQ2py2JBP-Ow-14BObZ-102" value="have" style="text;html=1;align=center;verticalAlign=middle;whiteSpace=wrap;rounded=0;" parent="1" vertex="1">
          <mxGeometry x="3815" y="820" width="60" height="30" as="geometry" />
        </mxCell>
        <mxCell id="_kQ2py2JBP-Ow-14BObZ-103" value="" style="rhombus;whiteSpace=wrap;html=1;fillColor=#ffff88;strokeColor=#36393d;" parent="1" vertex="1">
          <mxGeometry x="3950" y="420" width="90" height="70" as="geometry" />
        </mxCell>
        <mxCell id="_kQ2py2JBP-Ow-14BObZ-104" value="Contain" style="text;html=1;align=center;verticalAlign=middle;whiteSpace=wrap;rounded=0;" parent="1" vertex="1">
          <mxGeometry x="3970" y="440" width="60" height="30" as="geometry" />
        </mxCell>
        <mxCell id="_kQ2py2JBP-Ow-14BObZ-105" value="" style="rhombus;whiteSpace=wrap;html=1;fillColor=#ffff88;strokeColor=#36393d;" parent="1" vertex="1">
          <mxGeometry x="3620" y="340" width="90" height="70" as="geometry" />
        </mxCell>
        <mxCell id="_kQ2py2JBP-Ow-14BObZ-106" style="rounded=0;orthogonalLoop=1;jettySize=auto;html=1;entryX=0.25;entryY=1;entryDx=0;entryDy=0;endArrow=ERmany;endFill=0;" parent="1" source="_kQ2py2JBP-Ow-14BObZ-107" target="_kQ2py2JBP-Ow-14BObZ-18" edge="1">
          <mxGeometry relative="1" as="geometry" />
        </mxCell>
        <mxCell id="_kQ2py2JBP-Ow-14BObZ-107" value="Purchase" style="text;html=1;align=center;verticalAlign=middle;whiteSpace=wrap;rounded=0;" parent="1" vertex="1">
          <mxGeometry x="3640" y="360" width="60" height="30" as="geometry" />
        </mxCell>
        <mxCell id="_kQ2py2JBP-Ow-14BObZ-108" value="" style="rhombus;whiteSpace=wrap;html=1;fillColor=#ffff88;strokeColor=#36393d;" parent="1" vertex="1">
          <mxGeometry x="3280" y="450" width="90" height="70" as="geometry" />
        </mxCell>
        <mxCell id="_kQ2py2JBP-Ow-14BObZ-109" value="MadeBy" style="text;html=1;align=center;verticalAlign=middle;whiteSpace=wrap;rounded=0;" parent="1" vertex="1">
          <mxGeometry x="3295" y="470" width="60" height="30" as="geometry" />
        </mxCell>
        <mxCell id="_kQ2py2JBP-Ow-14BObZ-110" value="" style="rhombus;whiteSpace=wrap;html=1;fillColor=#ffff88;strokeColor=#36393d;" parent="1" vertex="1">
          <mxGeometry x="3180" y="875" width="90" height="70" as="geometry" />
        </mxCell>
        <mxCell id="_kQ2py2JBP-Ow-14BObZ-111" value="PaidWIth" style="text;html=1;align=center;verticalAlign=middle;whiteSpace=wrap;rounded=0;" parent="1" vertex="1">
          <mxGeometry x="3200" y="895" width="60" height="35" as="geometry" />
        </mxCell>
        <mxCell id="_kQ2py2JBP-Ow-14BObZ-112" style="rounded=0;orthogonalLoop=1;jettySize=auto;html=1;endArrow=none;endFill=0;strokeWidth=1.5;" parent="1" source="_kQ2py2JBP-Ow-14BObZ-113" edge="1">
          <mxGeometry relative="1" as="geometry">
            <mxPoint x="4120" y="1100" as="targetPoint" />
          </mxGeometry>
        </mxCell>
        <mxCell id="_kQ2py2JBP-Ow-14BObZ-113" value="" style="rhombus;whiteSpace=wrap;html=1;fillColor=#ffff88;strokeColor=#36393d;" parent="1" vertex="1">
          <mxGeometry x="4070" y="855" width="90" height="70" as="geometry" />
        </mxCell>
        <mxCell id="_kQ2py2JBP-Ow-14BObZ-114" value="Fulfills" style="text;html=1;align=center;verticalAlign=middle;whiteSpace=wrap;rounded=0;" parent="1" vertex="1">
          <mxGeometry x="4085" y="875" width="60" height="30" as="geometry" />
        </mxCell>
        <mxCell id="_kQ2py2JBP-Ow-14BObZ-115" value="" style="endArrow=none;html=1;rounded=0;" parent="1" edge="1">
          <mxGeometry width="50" height="50" relative="1" as="geometry">
            <mxPoint x="3110" y="1100" as="sourcePoint" />
            <mxPoint x="4120" y="1100" as="targetPoint" />
          </mxGeometry>
        </mxCell>
        <mxCell id="_kQ2py2JBP-Ow-14BObZ-116" value="" style="rhombus;whiteSpace=wrap;html=1;fillColor=#ffff88;strokeColor=#36393d;" parent="1" vertex="1">
          <mxGeometry x="4070" y="540" width="90" height="70" as="geometry" />
        </mxCell>
        <mxCell id="_kQ2py2JBP-Ow-14BObZ-117" value="Contain" style="text;html=1;align=center;verticalAlign=middle;whiteSpace=wrap;rounded=0;" parent="1" vertex="1">
          <mxGeometry x="4090" y="560" width="60" height="30" as="geometry" />
        </mxCell>
        <mxCell id="_kQ2py2JBP-Ow-14BObZ-118" value="" style="ellipse;whiteSpace=wrap;html=1;fillColor=none;strokeWidth=1.25;" parent="1" vertex="1">
          <mxGeometry x="4035" y="115" width="70" height="50" as="geometry" />
        </mxCell>
        <mxCell id="_kQ2py2JBP-Ow-14BObZ-121" style="rounded=0;orthogonalLoop=1;jettySize=auto;html=1;endArrow=ERmany;endFill=0;exitX=0.5;exitY=1;exitDx=0;exitDy=0;" parent="1" source="_kQ2py2JBP-Ow-14BObZ-127" target="_kQ2py2JBP-Ow-14BObZ-126" edge="1">
          <mxGeometry relative="1" as="geometry" />
        </mxCell>
        <mxCell id="_kQ2py2JBP-Ow-14BObZ-122" style="rounded=0;orthogonalLoop=1;jettySize=auto;html=1;entryX=1;entryY=0.5;entryDx=0;entryDy=0;endArrow=none;endFill=0;" parent="1" source="_kQ2py2JBP-Ow-14BObZ-126" target="_kQ2py2JBP-Ow-14BObZ-129" edge="1">
          <mxGeometry relative="1" as="geometry" />
        </mxCell>
        <mxCell id="_kQ2py2JBP-Ow-14BObZ-124" style="rounded=0;orthogonalLoop=1;jettySize=auto;html=1;entryX=0.5;entryY=0;entryDx=0;entryDy=0;endArrow=none;endFill=0;" parent="1" source="_kQ2py2JBP-Ow-14BObZ-126" target="_kQ2py2JBP-Ow-14BObZ-132" edge="1">
          <mxGeometry relative="1" as="geometry" />
        </mxCell>
        <mxCell id="_kQ2py2JBP-Ow-14BObZ-125" style="rounded=0;orthogonalLoop=1;jettySize=auto;html=1;endArrow=ERmany;endFill=0;exitX=0.5;exitY=1;exitDx=0;exitDy=0;" parent="1" source="_kQ2py2JBP-Ow-14BObZ-151" target="_kQ2py2JBP-Ow-14BObZ-126" edge="1">
          <mxGeometry relative="1" as="geometry" />
        </mxCell>
        <mxCell id="_kQ2py2JBP-Ow-14BObZ-126" value="CartItem" style="rounded=0;whiteSpace=wrap;html=1;fillColor=#a2d4e6;strokeColor=#63919f;" parent="1" vertex="1">
          <mxGeometry x="4230" y="590" width="80" height="60" as="geometry" />
        </mxCell>
        <mxCell id="_kQ2py2JBP-Ow-14BObZ-127" value="" style="rhombus;whiteSpace=wrap;html=1;fillColor=#ffff88;strokeColor=#36393d;" parent="1" vertex="1">
          <mxGeometry x="4170" y="480" width="90" height="70" as="geometry" />
        </mxCell>
        <mxCell id="_kQ2py2JBP-Ow-14BObZ-128" value="Contain" style="text;html=1;align=center;verticalAlign=middle;whiteSpace=wrap;rounded=0;" parent="1" vertex="1">
          <mxGeometry x="4180" y="500" width="60" height="30" as="geometry" />
        </mxCell>
        <mxCell id="_kQ2py2JBP-Ow-14BObZ-129" value="Quantity" style="ellipse;whiteSpace=wrap;html=1;fillColor=#f8cecc;strokeColor=#b85450;" parent="1" vertex="1">
          <mxGeometry x="4150" y="620" width="60" height="40" as="geometry" />
        </mxCell>
        <mxCell id="_kQ2py2JBP-Ow-14BObZ-130" value="Price" style="ellipse;whiteSpace=wrap;html=1;fillColor=#f8cecc;strokeColor=#b85450;" parent="1" vertex="1">
          <mxGeometry x="4230" y="670" width="60" height="40" as="geometry" />
        </mxCell>
        <mxCell id="_kQ2py2JBP-Ow-14BObZ-132" value="&lt;u&gt;cartitemID&lt;/u&gt;" style="ellipse;whiteSpace=wrap;html=1;fillColor=#f8cecc;strokeColor=#b85450;" parent="1" vertex="1">
          <mxGeometry x="4310" y="540" width="60" height="40" as="geometry" />
        </mxCell>
        <mxCell id="_kQ2py2JBP-Ow-14BObZ-133" style="rounded=0;orthogonalLoop=1;jettySize=auto;html=1;endArrow=none;endFill=0;" parent="1" source="_kQ2py2JBP-Ow-14BObZ-126" target="_kQ2py2JBP-Ow-14BObZ-130" edge="1">
          <mxGeometry relative="1" as="geometry" />
        </mxCell>
        <mxCell id="_kQ2py2JBP-Ow-14BObZ-134" style="rounded=0;orthogonalLoop=1;jettySize=auto;html=1;endArrow=none;endFill=0;" parent="1" source="_kQ2py2JBP-Ow-14BObZ-136" target="_kQ2py2JBP-Ow-14BObZ-143" edge="1">
          <mxGeometry relative="1" as="geometry" />
        </mxCell>
        <mxCell id="_kQ2py2JBP-Ow-14BObZ-135" style="rounded=0;orthogonalLoop=1;jettySize=auto;html=1;entryX=0.5;entryY=0;entryDx=0;entryDy=0;endArrow=ERmany;endFill=0;" parent="1" source="_kQ2py2JBP-Ow-14BObZ-136" target="_kQ2py2JBP-Ow-14BObZ-144" edge="1">
          <mxGeometry relative="1" as="geometry" />
        </mxCell>
        <mxCell id="_kQ2py2JBP-Ow-14BObZ-136" value="OrderItem" style="rounded=0;whiteSpace=wrap;html=1;fillColor=#a2d4e6;strokeColor=#63919f;" parent="1" vertex="1">
          <mxGeometry x="3740" y="480" width="90" height="50" as="geometry" />
        </mxCell>
        <mxCell id="_kQ2py2JBP-Ow-14BObZ-139" value="Quantity" style="ellipse;whiteSpace=wrap;html=1;fillColor=#f8cecc;strokeColor=#b85450;" parent="1" vertex="1">
          <mxGeometry x="3830" y="400" width="60" height="40" as="geometry" />
        </mxCell>
        <mxCell id="_kQ2py2JBP-Ow-14BObZ-140" style="endArrow=none;endFill=0;" parent="1" source="_kQ2py2JBP-Ow-14BObZ-136" target="_kQ2py2JBP-Ow-14BObZ-139" edge="1">
          <mxGeometry relative="1" as="geometry" />
        </mxCell>
        <mxCell id="_kQ2py2JBP-Ow-14BObZ-141" value="Price" style="ellipse;whiteSpace=wrap;html=1;fillColor=#f8cecc;strokeColor=#b85450;" parent="1" vertex="1">
          <mxGeometry x="3760" y="400" width="60" height="40" as="geometry" />
        </mxCell>
        <mxCell id="_kQ2py2JBP-Ow-14BObZ-142" style="endArrow=none;endFill=0;" parent="1" source="_kQ2py2JBP-Ow-14BObZ-136" target="_kQ2py2JBP-Ow-14BObZ-141" edge="1">
          <mxGeometry relative="1" as="geometry" />
        </mxCell>
        <mxCell id="_kQ2py2JBP-Ow-14BObZ-143" value="&lt;u&gt;OrderitemID&lt;/u&gt;" style="ellipse;whiteSpace=wrap;html=1;fillColor=#f8cecc;strokeColor=#b85450;" parent="1" vertex="1">
          <mxGeometry x="3630" y="460" width="70" height="40" as="geometry" />
        </mxCell>
        <mxCell id="_kQ2py2JBP-Ow-14BObZ-144" value="" style="rhombus;whiteSpace=wrap;html=1;fillColor=#ffff88;strokeColor=#36393d;" parent="1" vertex="1">
          <mxGeometry x="3780" y="570" width="90" height="70" as="geometry" />
        </mxCell>
        <mxCell id="_kQ2py2JBP-Ow-14BObZ-145" value="Contain" style="text;html=1;align=center;verticalAlign=middle;whiteSpace=wrap;rounded=0;" parent="1" vertex="1">
          <mxGeometry x="3800" y="590" width="60" height="30" as="geometry" />
        </mxCell>
        <mxCell id="_kQ2py2JBP-Ow-14BObZ-148" value="Quantity" style="ellipse;whiteSpace=wrap;html=1;fillColor=#f8cecc;strokeColor=#b85450;" parent="1" vertex="1">
          <mxGeometry x="4090" y="210" width="60" height="40" as="geometry" />
        </mxCell>
        <mxCell id="_kQ2py2JBP-Ow-14BObZ-151" value="" style="rhombus;whiteSpace=wrap;html=1;fillColor=#ffff88;strokeColor=#36393d;" parent="1" vertex="1">
          <mxGeometry x="4290" y="250" width="110" height="70" as="geometry" />
        </mxCell>
        <mxCell id="_kQ2py2JBP-Ow-14BObZ-152" value="Contain" style="text;html=1;align=center;verticalAlign=middle;whiteSpace=wrap;rounded=0;fillColor=none;strokeColor=none;glass=0;gradientColor=none;" parent="1" vertex="1">
          <mxGeometry x="4290" y="270" width="105" height="30" as="geometry" />
        </mxCell>
        <mxCell id="_kQ2py2JBP-Ow-14BObZ-153" value="Houseno" style="ellipse;whiteSpace=wrap;html=1;fillColor=#e1d5e7;strokeColor=#9673a6;" parent="1" vertex="1">
          <mxGeometry x="4150" y="700" width="60" height="40" as="geometry" />
        </mxCell>
        <mxCell id="_kQ2py2JBP-Ow-14BObZ-154" value="StreetNO" style="ellipse;whiteSpace=wrap;html=1;fillColor=#e1d5e7;strokeColor=#9673a6;" parent="1" vertex="1">
          <mxGeometry x="4150" y="760" width="60" height="40" as="geometry" />
        </mxCell>
        <mxCell id="_kQ2py2JBP-Ow-14BObZ-155" value="City" style="ellipse;whiteSpace=wrap;html=1;fillColor=#e1d5e7;strokeColor=#9673a6;" parent="1" vertex="1">
          <mxGeometry x="4140" y="820" width="60" height="40" as="geometry" />
        </mxCell>
        <mxCell id="_kQ2py2JBP-Ow-14BObZ-156" value="PaymtType" style="ellipse;whiteSpace=wrap;html=1;fillColor=#f8cecc;strokeColor=#b85450;" parent="1" vertex="1">
          <mxGeometry x="3920" y="930" width="70" height="40" as="geometry" />
        </mxCell>
        <mxCell id="_kQ2py2JBP-Ow-14BObZ-157" value="" style="ellipse;whiteSpace=wrap;html=1;fillColor=none;strokeWidth=1.25;" parent="1" vertex="1">
          <mxGeometry x="3475" y="125" width="70" height="50" as="geometry" />
        </mxCell>
        <mxCell id="_kQ2py2JBP-Ow-14BObZ-159" value="" style="ellipse;whiteSpace=wrap;html=1;fillColor=none;strokeWidth=1.25;" parent="1" vertex="1">
          <mxGeometry x="3805" y="1037.5" width="100" height="45" as="geometry" />
        </mxCell>
        <mxCell id="_kQ2py2JBP-Ow-14BObZ-160" value="" style="ellipse;whiteSpace=wrap;html=1;fillColor=none;strokeWidth=1.25;" parent="1" vertex="1">
          <mxGeometry x="3455" y="565" width="70" height="50" as="geometry" />
        </mxCell>
        <mxCell id="JpACnXKjDBH2QXV8zdp0-493" style="rounded=0;orthogonalLoop=1;jettySize=auto;html=1;endArrow=ERone;endFill=0;" edge="1" parent="1" source="JpACnXKjDBH2QXV8zdp0-549" target="JpACnXKjDBH2QXV8zdp0-494">
          <mxGeometry relative="1" as="geometry" />
        </mxCell>
        <mxCell id="JpACnXKjDBH2QXV8zdp0-494" value="Cart" style="rounded=0;whiteSpace=wrap;html=1;fillColor=#a2d4e6;strokeColor=#63919f;" vertex="1" parent="1">
          <mxGeometry x="8260" y="375" width="80" height="60" as="geometry" />
        </mxCell>
        <mxCell id="JpACnXKjDBH2QXV8zdp0-495" value="&lt;u&gt;CartID&lt;/u&gt;" style="ellipse;whiteSpace=wrap;html=1;fillColor=#f8cecc;strokeColor=#b85450;" vertex="1" parent="1">
          <mxGeometry x="8270" y="310" width="60" height="40" as="geometry" />
        </mxCell>
        <mxCell id="JpACnXKjDBH2QXV8zdp0-496" style="endArrow=none;endFill=0;" edge="1" parent="1" source="JpACnXKjDBH2QXV8zdp0-494" target="JpACnXKjDBH2QXV8zdp0-495">
          <mxGeometry relative="1" as="geometry" />
        </mxCell>
        <mxCell id="JpACnXKjDBH2QXV8zdp0-544" style="rounded=0;orthogonalLoop=1;jettySize=auto;html=1;endArrow=ERmany;endFill=0;exitX=0.5;exitY=1;exitDx=0;exitDy=0;" edge="1" parent="1" source="JpACnXKjDBH2QXV8zdp0-549" target="JpACnXKjDBH2QXV8zdp0-548">
          <mxGeometry relative="1" as="geometry" />
        </mxCell>
        <mxCell id="JpACnXKjDBH2QXV8zdp0-545" style="rounded=0;orthogonalLoop=1;jettySize=auto;html=1;entryX=1;entryY=0.5;entryDx=0;entryDy=0;endArrow=none;endFill=0;" edge="1" parent="1" source="JpACnXKjDBH2QXV8zdp0-548" target="JpACnXKjDBH2QXV8zdp0-551">
          <mxGeometry relative="1" as="geometry" />
        </mxCell>
        <mxCell id="JpACnXKjDBH2QXV8zdp0-546" style="rounded=0;orthogonalLoop=1;jettySize=auto;html=1;entryX=0.5;entryY=0;entryDx=0;entryDy=0;endArrow=none;endFill=0;" edge="1" parent="1" source="JpACnXKjDBH2QXV8zdp0-548" target="JpACnXKjDBH2QXV8zdp0-553">
          <mxGeometry relative="1" as="geometry" />
        </mxCell>
        <mxCell id="JpACnXKjDBH2QXV8zdp0-548" value="CartItem" style="rounded=0;whiteSpace=wrap;html=1;fillColor=#a2d4e6;strokeColor=#63919f;" vertex="1" parent="1">
          <mxGeometry x="8440" y="480" width="80" height="60" as="geometry" />
        </mxCell>
        <mxCell id="JpACnXKjDBH2QXV8zdp0-549" value="" style="rhombus;whiteSpace=wrap;html=1;fillColor=#ffff88;strokeColor=#36393d;" vertex="1" parent="1">
          <mxGeometry x="8430" y="370" width="90" height="70" as="geometry" />
        </mxCell>
        <mxCell id="JpACnXKjDBH2QXV8zdp0-550" value="Contain" style="text;html=1;align=center;verticalAlign=middle;whiteSpace=wrap;rounded=0;" vertex="1" parent="1">
          <mxGeometry x="8445" y="390" width="60" height="30" as="geometry" />
        </mxCell>
        <mxCell id="JpACnXKjDBH2QXV8zdp0-551" value="Quantity" style="ellipse;whiteSpace=wrap;html=1;fillColor=#f8cecc;strokeColor=#b85450;" vertex="1" parent="1">
          <mxGeometry x="8350" y="490" width="60" height="40" as="geometry" />
        </mxCell>
        <mxCell id="JpACnXKjDBH2QXV8zdp0-552" value="Price" style="ellipse;whiteSpace=wrap;html=1;fillColor=#f8cecc;strokeColor=#b85450;" vertex="1" parent="1">
          <mxGeometry x="8450" y="560" width="60" height="40" as="geometry" />
        </mxCell>
        <mxCell id="JpACnXKjDBH2QXV8zdp0-553" value="&lt;u&gt;cartitemID&lt;/u&gt;" style="ellipse;whiteSpace=wrap;html=1;fillColor=#f8cecc;strokeColor=#b85450;" vertex="1" parent="1">
          <mxGeometry x="8530" y="510" width="60" height="40" as="geometry" />
        </mxCell>
        <mxCell id="JpACnXKjDBH2QXV8zdp0-554" style="rounded=0;orthogonalLoop=1;jettySize=auto;html=1;endArrow=none;endFill=0;" edge="1" parent="1" source="JpACnXKjDBH2QXV8zdp0-548" target="JpACnXKjDBH2QXV8zdp0-552">
          <mxGeometry relative="1" as="geometry" />
        </mxCell>
        <mxCell id="JpACnXKjDBH2QXV8zdp0-618" value="Customer" style="rounded=0;whiteSpace=wrap;html=1;fillColor=#a2d4e6;strokeColor=#63919f;" vertex="1" parent="1">
          <mxGeometry x="5710" y="-2470" width="90" height="50" as="geometry" />
        </mxCell>
        <mxCell id="JpACnXKjDBH2QXV8zdp0-619" value="&lt;u&gt;CustomerID&lt;/u&gt;" style="ellipse;whiteSpace=wrap;html=1;fillColor=#f8cecc;strokeColor=#b85450;" vertex="1" parent="1">
          <mxGeometry x="5620" y="-2520" width="70" height="50" as="geometry" />
        </mxCell>
        <mxCell id="JpACnXKjDBH2QXV8zdp0-620" style="endArrow=none;endFill=0;" edge="1" parent="1" source="JpACnXKjDBH2QXV8zdp0-618" target="JpACnXKjDBH2QXV8zdp0-619">
          <mxGeometry relative="1" as="geometry" />
        </mxCell>
        <mxCell id="JpACnXKjDBH2QXV8zdp0-621" value="Name" style="ellipse;whiteSpace=wrap;html=1;fillColor=#f8cecc;strokeColor=#b85450;" vertex="1" parent="1">
          <mxGeometry x="5680" y="-2570" width="60" height="40" as="geometry" />
        </mxCell>
        <mxCell id="JpACnXKjDBH2QXV8zdp0-622" style="endArrow=none;endFill=0;" edge="1" parent="1" source="JpACnXKjDBH2QXV8zdp0-618" target="JpACnXKjDBH2QXV8zdp0-621">
          <mxGeometry relative="1" as="geometry" />
        </mxCell>
        <mxCell id="JpACnXKjDBH2QXV8zdp0-623" value="Email" style="ellipse;whiteSpace=wrap;html=1;fillColor=#f8cecc;strokeColor=#b85450;" vertex="1" parent="1">
          <mxGeometry x="5750" y="-2570" width="60" height="40" as="geometry" />
        </mxCell>
        <mxCell id="JpACnXKjDBH2QXV8zdp0-624" style="endArrow=none;endFill=0;" edge="1" parent="1" source="JpACnXKjDBH2QXV8zdp0-618" target="JpACnXKjDBH2QXV8zdp0-623">
          <mxGeometry relative="1" as="geometry" />
        </mxCell>
        <mxCell id="JpACnXKjDBH2QXV8zdp0-625" style="rounded=0;orthogonalLoop=1;jettySize=auto;html=1;entryX=0;entryY=0.5;entryDx=0;entryDy=0;endArrow=ERmany;endFill=0;strokeWidth=1.5;" edge="1" parent="1" source="JpACnXKjDBH2QXV8zdp0-626" target="JpACnXKjDBH2QXV8zdp0-648">
          <mxGeometry relative="1" as="geometry">
            <mxPoint x="6120" y="-2445" as="targetPoint" />
          </mxGeometry>
        </mxCell>
        <mxCell id="JpACnXKjDBH2QXV8zdp0-626" value="" style="rhombus;whiteSpace=wrap;html=1;fillColor=#ffff88;strokeColor=#36393d;" vertex="1" parent="1">
          <mxGeometry x="5890" y="-2480" width="100" height="70" as="geometry" />
        </mxCell>
        <mxCell id="JpACnXKjDBH2QXV8zdp0-627" value="have" style="text;html=1;align=center;verticalAlign=middle;whiteSpace=wrap;rounded=0;" vertex="1" parent="1">
          <mxGeometry x="5910" y="-2460" width="60" height="30" as="geometry" />
        </mxCell>
        <mxCell id="JpACnXKjDBH2QXV8zdp0-628" value="" style="endArrow=baseDash;html=1;rounded=0;entryX=0;entryY=0.5;entryDx=0;entryDy=0;endFill=0;strokeWidth=1.5;" edge="1" parent="1" target="JpACnXKjDBH2QXV8zdp0-626">
          <mxGeometry width="50" height="50" relative="1" as="geometry">
            <mxPoint x="5800" y="-2445" as="sourcePoint" />
            <mxPoint x="5890" y="-2580" as="targetPoint" />
          </mxGeometry>
        </mxCell>
        <mxCell id="JpACnXKjDBH2QXV8zdp0-640" style="rounded=0;orthogonalLoop=1;jettySize=auto;html=1;endArrow=none;endFill=0;" edge="1" parent="1" source="JpACnXKjDBH2QXV8zdp0-648" target="JpACnXKjDBH2QXV8zdp0-655">
          <mxGeometry relative="1" as="geometry" />
        </mxCell>
        <mxCell id="JpACnXKjDBH2QXV8zdp0-641" style="rounded=0;orthogonalLoop=1;jettySize=auto;html=1;endArrow=none;endFill=0;" edge="1" parent="1" source="JpACnXKjDBH2QXV8zdp0-648" target="JpACnXKjDBH2QXV8zdp0-654">
          <mxGeometry relative="1" as="geometry" />
        </mxCell>
        <mxCell id="JpACnXKjDBH2QXV8zdp0-642" style="rounded=0;orthogonalLoop=1;jettySize=auto;html=1;entryX=0.5;entryY=1;entryDx=0;entryDy=0;endArrow=none;endFill=0;" edge="1" parent="1" source="JpACnXKjDBH2QXV8zdp0-648" target="JpACnXKjDBH2QXV8zdp0-649">
          <mxGeometry relative="1" as="geometry">
            <mxPoint x="6150" y="-2550" as="targetPoint" />
          </mxGeometry>
        </mxCell>
        <mxCell id="JpACnXKjDBH2QXV8zdp0-648" value="Order" style="rounded=0;whiteSpace=wrap;html=1;fillColor=#a2d4e6;strokeColor=#63919f;" vertex="1" parent="1">
          <mxGeometry x="6070" y="-2470" width="100" height="50" as="geometry" />
        </mxCell>
        <mxCell id="JpACnXKjDBH2QXV8zdp0-649" value="Amount" style="ellipse;whiteSpace=wrap;html=1;fillColor=#f8cecc;strokeColor=#b85450;" vertex="1" parent="1">
          <mxGeometry x="6170" y="-2540" width="60" height="40" as="geometry" />
        </mxCell>
        <mxCell id="JpACnXKjDBH2QXV8zdp0-650" style="rounded=0;orthogonalLoop=1;jettySize=auto;html=1;entryX=0;entryY=0.5;entryDx=0;entryDy=0;endArrow=none;endFill=0;" edge="1" parent="1" source="JpACnXKjDBH2QXV8zdp0-653" target="JpACnXKjDBH2QXV8zdp0-711">
          <mxGeometry relative="1" as="geometry" />
        </mxCell>
        <mxCell id="JpACnXKjDBH2QXV8zdp0-651" style="rounded=0;orthogonalLoop=1;jettySize=auto;html=1;entryX=0;entryY=1;entryDx=0;entryDy=0;endArrow=none;endFill=0;" edge="1" parent="1" source="JpACnXKjDBH2QXV8zdp0-653" target="JpACnXKjDBH2QXV8zdp0-710">
          <mxGeometry relative="1" as="geometry" />
        </mxCell>
        <mxCell id="JpACnXKjDBH2QXV8zdp0-652" style="rounded=0;orthogonalLoop=1;jettySize=auto;html=1;entryX=0;entryY=0.5;entryDx=0;entryDy=0;endArrow=none;endFill=0;" edge="1" parent="1" source="JpACnXKjDBH2QXV8zdp0-653" target="JpACnXKjDBH2QXV8zdp0-712">
          <mxGeometry relative="1" as="geometry" />
        </mxCell>
        <mxCell id="JpACnXKjDBH2QXV8zdp0-653" value="Address" style="ellipse;whiteSpace=wrap;html=1;fillColor=#f8cecc;strokeColor=#b85450;" vertex="1" parent="1">
          <mxGeometry x="6260" y="-2420" width="60" height="40" as="geometry" />
        </mxCell>
        <mxCell id="JpACnXKjDBH2QXV8zdp0-654" value="OrderDate" style="ellipse;whiteSpace=wrap;html=1;fillColor=#f8cecc;strokeColor=#b85450;" vertex="1" parent="1">
          <mxGeometry x="6220" y="-2480" width="60" height="40" as="geometry" />
        </mxCell>
        <mxCell id="JpACnXKjDBH2QXV8zdp0-655" value="&lt;u&gt;OrderID&lt;/u&gt;" style="ellipse;whiteSpace=wrap;html=1;fillColor=#f8cecc;strokeColor=#b85450;" vertex="1" parent="1">
          <mxGeometry x="6190" y="-2390" width="60" height="40" as="geometry" />
        </mxCell>
        <mxCell id="JpACnXKjDBH2QXV8zdp0-667" style="rounded=0;orthogonalLoop=1;jettySize=auto;html=1;entryX=0.365;entryY=-0.026;entryDx=0;entryDy=0;entryPerimeter=0;endArrow=none;endFill=0;" edge="1" parent="1" source="JpACnXKjDBH2QXV8zdp0-648" target="JpACnXKjDBH2QXV8zdp0-653">
          <mxGeometry relative="1" as="geometry" />
        </mxCell>
        <mxCell id="JpACnXKjDBH2QXV8zdp0-710" value="Houseno" style="ellipse;whiteSpace=wrap;html=1;fillColor=#e1d5e7;strokeColor=#9673a6;" vertex="1" parent="1">
          <mxGeometry x="6400" y="-2440" width="60" height="40" as="geometry" />
        </mxCell>
        <mxCell id="JpACnXKjDBH2QXV8zdp0-711" value="StreetNO" style="ellipse;whiteSpace=wrap;html=1;fillColor=#e1d5e7;strokeColor=#9673a6;" vertex="1" parent="1">
          <mxGeometry x="6410" y="-2390" width="60" height="40" as="geometry" />
        </mxCell>
        <mxCell id="JpACnXKjDBH2QXV8zdp0-712" value="City" style="ellipse;whiteSpace=wrap;html=1;fillColor=#e1d5e7;strokeColor=#9673a6;" vertex="1" parent="1">
          <mxGeometry x="6410" y="-2340" width="60" height="40" as="geometry" />
        </mxCell>
        <mxCell id="JpACnXKjDBH2QXV8zdp0-716" value="" style="ellipse;whiteSpace=wrap;html=1;fillColor=none;strokeWidth=1.25;" vertex="1" parent="1">
          <mxGeometry x="5745" y="-2575" width="70" height="50" as="geometry" />
        </mxCell>
        <mxCell id="JpACnXKjDBH2QXV8zdp0-719" style="edgeStyle=orthogonalEdgeStyle;rounded=0;orthogonalLoop=1;jettySize=auto;html=1;exitX=0.5;exitY=1;exitDx=0;exitDy=0;" edge="1" parent="1" source="JpACnXKjDBH2QXV8zdp0-648" target="JpACnXKjDBH2QXV8zdp0-648">
          <mxGeometry relative="1" as="geometry" />
        </mxCell>
        <mxCell id="JpACnXKjDBH2QXV8zdp0-785" style="rounded=0;orthogonalLoop=1;jettySize=auto;html=1;endArrow=none;endFill=0;" edge="1" parent="1" source="JpACnXKjDBH2QXV8zdp0-793" target="JpACnXKjDBH2QXV8zdp0-800">
          <mxGeometry relative="1" as="geometry" />
        </mxCell>
        <mxCell id="JpACnXKjDBH2QXV8zdp0-786" style="rounded=0;orthogonalLoop=1;jettySize=auto;html=1;endArrow=none;endFill=0;" edge="1" parent="1" source="JpACnXKjDBH2QXV8zdp0-793" target="JpACnXKjDBH2QXV8zdp0-799">
          <mxGeometry relative="1" as="geometry" />
        </mxCell>
        <mxCell id="JpACnXKjDBH2QXV8zdp0-787" style="rounded=0;orthogonalLoop=1;jettySize=auto;html=1;entryX=0.5;entryY=1;entryDx=0;entryDy=0;endArrow=none;endFill=0;" edge="1" parent="1" source="JpACnXKjDBH2QXV8zdp0-793" target="JpACnXKjDBH2QXV8zdp0-794">
          <mxGeometry relative="1" as="geometry">
            <mxPoint x="7370" y="-730" as="targetPoint" />
          </mxGeometry>
        </mxCell>
        <mxCell id="JpACnXKjDBH2QXV8zdp0-792" style="rounded=0;orthogonalLoop=1;jettySize=auto;html=1;entryX=0.5;entryY=1;entryDx=0;entryDy=0;endArrow=ERone;endFill=0;" edge="1" parent="1" source="JpACnXKjDBH2QXV8zdp0-793" target="JpACnXKjDBH2QXV8zdp0-850">
          <mxGeometry relative="1" as="geometry">
            <mxPoint x="7360" y="-690" as="targetPoint" />
          </mxGeometry>
        </mxCell>
        <mxCell id="JpACnXKjDBH2QXV8zdp0-793" value="Order" style="rounded=0;whiteSpace=wrap;html=1;fillColor=#a2d4e6;strokeColor=#63919f;" vertex="1" parent="1">
          <mxGeometry x="7410" y="-620" width="100" height="50" as="geometry" />
        </mxCell>
        <mxCell id="JpACnXKjDBH2QXV8zdp0-794" value="Amount" style="ellipse;whiteSpace=wrap;html=1;fillColor=#f8cecc;strokeColor=#b85450;" vertex="1" parent="1">
          <mxGeometry x="7500" y="-720" width="60" height="40" as="geometry" />
        </mxCell>
        <mxCell id="JpACnXKjDBH2QXV8zdp0-795" style="rounded=0;orthogonalLoop=1;jettySize=auto;html=1;entryX=0;entryY=0.5;entryDx=0;entryDy=0;endArrow=none;endFill=0;" edge="1" parent="1" source="JpACnXKjDBH2QXV8zdp0-798" target="JpACnXKjDBH2QXV8zdp0-856">
          <mxGeometry relative="1" as="geometry" />
        </mxCell>
        <mxCell id="JpACnXKjDBH2QXV8zdp0-796" style="rounded=0;orthogonalLoop=1;jettySize=auto;html=1;entryX=0;entryY=1;entryDx=0;entryDy=0;endArrow=none;endFill=0;" edge="1" parent="1" source="JpACnXKjDBH2QXV8zdp0-798" target="JpACnXKjDBH2QXV8zdp0-855">
          <mxGeometry relative="1" as="geometry" />
        </mxCell>
        <mxCell id="JpACnXKjDBH2QXV8zdp0-797" style="rounded=0;orthogonalLoop=1;jettySize=auto;html=1;entryX=0;entryY=0.5;entryDx=0;entryDy=0;endArrow=none;endFill=0;" edge="1" parent="1" source="JpACnXKjDBH2QXV8zdp0-798" target="JpACnXKjDBH2QXV8zdp0-857">
          <mxGeometry relative="1" as="geometry" />
        </mxCell>
        <mxCell id="JpACnXKjDBH2QXV8zdp0-798" value="Address" style="ellipse;whiteSpace=wrap;html=1;fillColor=#f8cecc;strokeColor=#b85450;" vertex="1" parent="1">
          <mxGeometry x="7530" y="-570" width="60" height="40" as="geometry" />
        </mxCell>
        <mxCell id="JpACnXKjDBH2QXV8zdp0-799" value="OrderDate" style="ellipse;whiteSpace=wrap;html=1;fillColor=#f8cecc;strokeColor=#b85450;" vertex="1" parent="1">
          <mxGeometry x="7560" y="-670" width="60" height="40" as="geometry" />
        </mxCell>
        <mxCell id="JpACnXKjDBH2QXV8zdp0-800" value="&lt;u&gt;OrderID&lt;/u&gt;" style="ellipse;whiteSpace=wrap;html=1;fillColor=#f8cecc;strokeColor=#b85450;" vertex="1" parent="1">
          <mxGeometry x="7480" y="-540" width="60" height="40" as="geometry" />
        </mxCell>
        <mxCell id="JpACnXKjDBH2QXV8zdp0-812" style="rounded=0;orthogonalLoop=1;jettySize=auto;html=1;entryX=0.365;entryY=-0.026;entryDx=0;entryDy=0;entryPerimeter=0;endArrow=none;endFill=0;" edge="1" parent="1" source="JpACnXKjDBH2QXV8zdp0-793" target="JpACnXKjDBH2QXV8zdp0-798">
          <mxGeometry relative="1" as="geometry" />
        </mxCell>
        <mxCell id="JpACnXKjDBH2QXV8zdp0-842" style="rounded=0;orthogonalLoop=1;jettySize=auto;html=1;endArrow=none;endFill=0;" edge="1" parent="1" source="JpACnXKjDBH2QXV8zdp0-844" target="JpACnXKjDBH2QXV8zdp0-849">
          <mxGeometry relative="1" as="geometry" />
        </mxCell>
        <mxCell id="JpACnXKjDBH2QXV8zdp0-843" style="rounded=0;orthogonalLoop=1;jettySize=auto;html=1;entryX=0.5;entryY=0;entryDx=0;entryDy=0;endArrow=ERmany;endFill=0;" edge="1" parent="1" source="JpACnXKjDBH2QXV8zdp0-844" target="JpACnXKjDBH2QXV8zdp0-850">
          <mxGeometry relative="1" as="geometry" />
        </mxCell>
        <mxCell id="JpACnXKjDBH2QXV8zdp0-844" value="OrderItem" style="rounded=0;whiteSpace=wrap;html=1;fillColor=#a2d4e6;strokeColor=#63919f;" vertex="1" parent="1">
          <mxGeometry x="7400" y="-850" width="90" height="50" as="geometry" />
        </mxCell>
        <mxCell id="JpACnXKjDBH2QXV8zdp0-845" value="Quantity" style="ellipse;whiteSpace=wrap;html=1;fillColor=#f8cecc;strokeColor=#b85450;" vertex="1" parent="1">
          <mxGeometry x="7440" y="-900" width="60" height="40" as="geometry" />
        </mxCell>
        <mxCell id="JpACnXKjDBH2QXV8zdp0-846" style="endArrow=none;endFill=0;" edge="1" parent="1" source="JpACnXKjDBH2QXV8zdp0-844" target="JpACnXKjDBH2QXV8zdp0-845">
          <mxGeometry relative="1" as="geometry" />
        </mxCell>
        <mxCell id="JpACnXKjDBH2QXV8zdp0-847" value="Price" style="ellipse;whiteSpace=wrap;html=1;fillColor=#f8cecc;strokeColor=#b85450;" vertex="1" parent="1">
          <mxGeometry x="7350" y="-910" width="60" height="40" as="geometry" />
        </mxCell>
        <mxCell id="JpACnXKjDBH2QXV8zdp0-848" style="endArrow=none;endFill=0;" edge="1" parent="1" source="JpACnXKjDBH2QXV8zdp0-844" target="JpACnXKjDBH2QXV8zdp0-847">
          <mxGeometry relative="1" as="geometry" />
        </mxCell>
        <mxCell id="JpACnXKjDBH2QXV8zdp0-849" value="&lt;u&gt;OrderitemID&lt;/u&gt;" style="ellipse;whiteSpace=wrap;html=1;fillColor=#f8cecc;strokeColor=#b85450;" vertex="1" parent="1">
          <mxGeometry x="7300" y="-870" width="70" height="40" as="geometry" />
        </mxCell>
        <mxCell id="JpACnXKjDBH2QXV8zdp0-850" value="" style="rhombus;whiteSpace=wrap;html=1;fillColor=#ffff88;strokeColor=#36393d;" vertex="1" parent="1">
          <mxGeometry x="7400" y="-760" width="90" height="70" as="geometry" />
        </mxCell>
        <mxCell id="JpACnXKjDBH2QXV8zdp0-851" value="Contain" style="text;html=1;align=center;verticalAlign=middle;whiteSpace=wrap;rounded=0;" vertex="1" parent="1">
          <mxGeometry x="7415" y="-740" width="60" height="30" as="geometry" />
        </mxCell>
        <mxCell id="JpACnXKjDBH2QXV8zdp0-855" value="Houseno" style="ellipse;whiteSpace=wrap;html=1;fillColor=#e1d5e7;strokeColor=#9673a6;" vertex="1" parent="1">
          <mxGeometry x="7660" y="-620" width="60" height="40" as="geometry" />
        </mxCell>
        <mxCell id="JpACnXKjDBH2QXV8zdp0-856" value="StreetNO" style="ellipse;whiteSpace=wrap;html=1;fillColor=#e1d5e7;strokeColor=#9673a6;" vertex="1" parent="1">
          <mxGeometry x="7660" y="-560" width="60" height="40" as="geometry" />
        </mxCell>
        <mxCell id="JpACnXKjDBH2QXV8zdp0-857" value="City" style="ellipse;whiteSpace=wrap;html=1;fillColor=#e1d5e7;strokeColor=#9673a6;" vertex="1" parent="1">
          <mxGeometry x="7650" y="-500" width="60" height="40" as="geometry" />
        </mxCell>
        <mxCell id="JpACnXKjDBH2QXV8zdp0-896" style="rounded=0;orthogonalLoop=1;jettySize=auto;html=1;entryX=0.334;entryY=0.138;entryDx=0;entryDy=0;entryPerimeter=0;endArrow=none;endFill=0;" edge="1" parent="1" source="JpACnXKjDBH2QXV8zdp0-897" target="JpACnXKjDBH2QXV8zdp0-1003">
          <mxGeometry relative="1" as="geometry">
            <mxPoint x="5220" y="-630" as="targetPoint" />
          </mxGeometry>
        </mxCell>
        <mxCell id="JpACnXKjDBH2QXV8zdp0-897" value="Payment" style="rounded=0;whiteSpace=wrap;html=1;fillColor=#a2d4e6;strokeColor=#63919f;" vertex="1" parent="1">
          <mxGeometry x="5020" y="-670" width="100" height="60" as="geometry" />
        </mxCell>
        <mxCell id="JpACnXKjDBH2QXV8zdp0-898" value="&lt;u&gt;PaymtID&lt;/u&gt;" style="ellipse;whiteSpace=wrap;html=1;fillColor=#f8cecc;strokeColor=#b85450;" vertex="1" parent="1">
          <mxGeometry x="4915" y="-590" width="60" height="40" as="geometry" />
        </mxCell>
        <mxCell id="JpACnXKjDBH2QXV8zdp0-899" style="endArrow=none;endFill=0;" edge="1" parent="1" source="JpACnXKjDBH2QXV8zdp0-897" target="JpACnXKjDBH2QXV8zdp0-898">
          <mxGeometry relative="1" as="geometry" />
        </mxCell>
        <mxCell id="JpACnXKjDBH2QXV8zdp0-900" value="Amount" style="ellipse;whiteSpace=wrap;html=1;fillColor=#f8cecc;strokeColor=#b85450;" vertex="1" parent="1">
          <mxGeometry x="5170" y="-600" width="60" height="40" as="geometry" />
        </mxCell>
        <mxCell id="JpACnXKjDBH2QXV8zdp0-901" style="endArrow=none;endFill=0;" edge="1" parent="1" source="JpACnXKjDBH2QXV8zdp0-897" target="JpACnXKjDBH2QXV8zdp0-900">
          <mxGeometry relative="1" as="geometry" />
        </mxCell>
        <mxCell id="JpACnXKjDBH2QXV8zdp0-902" value="PhoneNumber" style="ellipse;whiteSpace=wrap;html=1;fillColor=#f8cecc;strokeColor=#b85450;" vertex="1" parent="1">
          <mxGeometry x="5085" y="-550" width="80" height="40" as="geometry" />
        </mxCell>
        <mxCell id="JpACnXKjDBH2QXV8zdp0-903" style="endArrow=none;endFill=0;" edge="1" parent="1" source="JpACnXKjDBH2QXV8zdp0-897" target="JpACnXKjDBH2QXV8zdp0-902">
          <mxGeometry relative="1" as="geometry" />
        </mxCell>
        <mxCell id="JpACnXKjDBH2QXV8zdp0-904" value="transID" style="ellipse;whiteSpace=wrap;html=1;fillColor=#ffcccc;strokeColor=#36393d;" vertex="1" parent="1">
          <mxGeometry x="4970" y="-560" width="80" height="40" as="geometry" />
        </mxCell>
        <mxCell id="JpACnXKjDBH2QXV8zdp0-905" style="endArrow=none;endFill=0;" edge="1" parent="1" source="JpACnXKjDBH2QXV8zdp0-897" target="JpACnXKjDBH2QXV8zdp0-904">
          <mxGeometry relative="1" as="geometry" />
        </mxCell>
        <mxCell id="JpACnXKjDBH2QXV8zdp0-908" value="Customer" style="rounded=0;whiteSpace=wrap;html=1;fillColor=#a2d4e6;strokeColor=#63919f;" vertex="1" parent="1">
          <mxGeometry x="4780" y="-760" width="90" height="50" as="geometry" />
        </mxCell>
        <mxCell id="JpACnXKjDBH2QXV8zdp0-909" value="&lt;u&gt;CustomerID&lt;/u&gt;" style="ellipse;whiteSpace=wrap;html=1;fillColor=#f8cecc;strokeColor=#b85450;" vertex="1" parent="1">
          <mxGeometry x="4660" y="-780" width="70" height="50" as="geometry" />
        </mxCell>
        <mxCell id="JpACnXKjDBH2QXV8zdp0-910" style="endArrow=none;endFill=0;" edge="1" parent="1" source="JpACnXKjDBH2QXV8zdp0-908" target="JpACnXKjDBH2QXV8zdp0-909">
          <mxGeometry relative="1" as="geometry" />
        </mxCell>
        <mxCell id="JpACnXKjDBH2QXV8zdp0-911" value="Name" style="ellipse;whiteSpace=wrap;html=1;fillColor=#f8cecc;strokeColor=#b85450;" vertex="1" parent="1">
          <mxGeometry x="4720" y="-830" width="60" height="40" as="geometry" />
        </mxCell>
        <mxCell id="JpACnXKjDBH2QXV8zdp0-912" style="endArrow=none;endFill=0;" edge="1" parent="1" source="JpACnXKjDBH2QXV8zdp0-908" target="JpACnXKjDBH2QXV8zdp0-911">
          <mxGeometry relative="1" as="geometry" />
        </mxCell>
        <mxCell id="JpACnXKjDBH2QXV8zdp0-913" value="Email" style="ellipse;whiteSpace=wrap;html=1;fillColor=#f8cecc;strokeColor=#b85450;" vertex="1" parent="1">
          <mxGeometry x="4795" y="-830" width="60" height="40" as="geometry" />
        </mxCell>
        <mxCell id="JpACnXKjDBH2QXV8zdp0-914" style="endArrow=none;endFill=0;" edge="1" parent="1" source="JpACnXKjDBH2QXV8zdp0-908" target="JpACnXKjDBH2QXV8zdp0-913">
          <mxGeometry relative="1" as="geometry" />
        </mxCell>
        <mxCell id="JpACnXKjDBH2QXV8zdp0-919" value="" style="rhombus;whiteSpace=wrap;html=1;fillColor=#ffff88;strokeColor=#36393d;" vertex="1" parent="1">
          <mxGeometry x="4830" y="-670" width="100" height="60" as="geometry" />
        </mxCell>
        <mxCell id="JpACnXKjDBH2QXV8zdp0-920" value="Makes" style="text;html=1;align=center;verticalAlign=middle;whiteSpace=wrap;rounded=0;" vertex="1" parent="1">
          <mxGeometry x="4850" y="-655" width="60" height="30" as="geometry" />
        </mxCell>
        <mxCell id="JpACnXKjDBH2QXV8zdp0-921" value="" style="endArrow=ERmany;html=1;rounded=0;entryX=0;entryY=0.5;entryDx=0;entryDy=0;exitX=1;exitY=0.5;exitDx=0;exitDy=0;endFill=0;strokeWidth=1.5;" edge="1" parent="1" source="JpACnXKjDBH2QXV8zdp0-919" target="JpACnXKjDBH2QXV8zdp0-897">
          <mxGeometry width="50" height="50" relative="1" as="geometry">
            <mxPoint x="4970" y="-720" as="sourcePoint" />
            <mxPoint x="5020" y="-770" as="targetPoint" />
          </mxGeometry>
        </mxCell>
        <mxCell id="JpACnXKjDBH2QXV8zdp0-922" value="" style="endArrow=ERone;html=1;rounded=0;exitX=0;exitY=0.5;exitDx=0;exitDy=0;entryX=0.5;entryY=1;entryDx=0;entryDy=0;endFill=0;strokeWidth=1.5;" edge="1" parent="1" source="JpACnXKjDBH2QXV8zdp0-919" target="JpACnXKjDBH2QXV8zdp0-908">
          <mxGeometry width="50" height="50" relative="1" as="geometry">
            <mxPoint x="5020" y="-770" as="sourcePoint" />
            <mxPoint x="4970" y="-720" as="targetPoint" />
          </mxGeometry>
        </mxCell>
        <mxCell id="JpACnXKjDBH2QXV8zdp0-1003" value="PaymtType" style="ellipse;whiteSpace=wrap;html=1;fillColor=#f8cecc;strokeColor=#b85450;" vertex="1" parent="1">
          <mxGeometry x="5190" y="-660" width="70" height="40" as="geometry" />
        </mxCell>
        <mxCell id="JpACnXKjDBH2QXV8zdp0-1005" value="" style="ellipse;whiteSpace=wrap;html=1;fillColor=none;strokeWidth=1.25;" vertex="1" parent="1">
          <mxGeometry x="5075" y="-552.5" width="100" height="45" as="geometry" />
        </mxCell>
        <mxCell id="JpACnXKjDBH2QXV8zdp0-1006" value="" style="ellipse;whiteSpace=wrap;html=1;fillColor=none;strokeWidth=1.25;" vertex="1" parent="1">
          <mxGeometry x="4790" y="-835" width="70" height="50" as="geometry" />
        </mxCell>
        <mxCell id="JpACnXKjDBH2QXV8zdp0-1039" style="rounded=0;orthogonalLoop=1;jettySize=auto;html=1;entryX=0;entryY=0.75;entryDx=0;entryDy=0;endArrow=ERone;endFill=0;exitX=0.5;exitY=1;exitDx=0;exitDy=0;" edge="1" parent="1" source="JpACnXKjDBH2QXV8zdp0-1111" target="JpACnXKjDBH2QXV8zdp0-1041">
          <mxGeometry relative="1" as="geometry">
            <mxPoint x="3780" y="-1580" as="targetPoint" />
          </mxGeometry>
        </mxCell>
        <mxCell id="JpACnXKjDBH2QXV8zdp0-1040" style="rounded=0;orthogonalLoop=1;jettySize=auto;html=1;entryX=0.334;entryY=0.138;entryDx=0;entryDy=0;entryPerimeter=0;endArrow=none;endFill=0;" edge="1" parent="1" source="JpACnXKjDBH2QXV8zdp0-1041" target="JpACnXKjDBH2QXV8zdp0-1147">
          <mxGeometry relative="1" as="geometry">
            <mxPoint x="3990" y="-1580" as="targetPoint" />
          </mxGeometry>
        </mxCell>
        <mxCell id="JpACnXKjDBH2QXV8zdp0-1041" value="Payment" style="rounded=0;whiteSpace=wrap;html=1;fillColor=#a2d4e6;strokeColor=#63919f;" vertex="1" parent="1">
          <mxGeometry x="3400" y="-1640" width="100" height="60" as="geometry" />
        </mxCell>
        <mxCell id="JpACnXKjDBH2QXV8zdp0-1042" value="&lt;u&gt;PaymtID&lt;/u&gt;" style="ellipse;whiteSpace=wrap;html=1;fillColor=#f8cecc;strokeColor=#b85450;" vertex="1" parent="1">
          <mxGeometry x="3510" y="-1550" width="60" height="40" as="geometry" />
        </mxCell>
        <mxCell id="JpACnXKjDBH2QXV8zdp0-1043" style="endArrow=none;endFill=0;" edge="1" parent="1" source="JpACnXKjDBH2QXV8zdp0-1041" target="JpACnXKjDBH2QXV8zdp0-1042">
          <mxGeometry relative="1" as="geometry" />
        </mxCell>
        <mxCell id="JpACnXKjDBH2QXV8zdp0-1044" value="Amount" style="ellipse;whiteSpace=wrap;html=1;fillColor=#f8cecc;strokeColor=#b85450;" vertex="1" parent="1">
          <mxGeometry x="3560" y="-1640" width="60" height="40" as="geometry" />
        </mxCell>
        <mxCell id="JpACnXKjDBH2QXV8zdp0-1045" style="endArrow=none;endFill=0;" edge="1" parent="1" source="JpACnXKjDBH2QXV8zdp0-1041" target="JpACnXKjDBH2QXV8zdp0-1044">
          <mxGeometry relative="1" as="geometry" />
        </mxCell>
        <mxCell id="JpACnXKjDBH2QXV8zdp0-1046" value="PhoneNumber" style="ellipse;whiteSpace=wrap;html=1;fillColor=#f8cecc;strokeColor=#b85450;" vertex="1" parent="1">
          <mxGeometry x="3590" y="-1580" width="80" height="40" as="geometry" />
        </mxCell>
        <mxCell id="JpACnXKjDBH2QXV8zdp0-1047" style="endArrow=none;endFill=0;" edge="1" parent="1" source="JpACnXKjDBH2QXV8zdp0-1041" target="JpACnXKjDBH2QXV8zdp0-1046">
          <mxGeometry relative="1" as="geometry" />
        </mxCell>
        <mxCell id="JpACnXKjDBH2QXV8zdp0-1048" value="transID" style="ellipse;whiteSpace=wrap;html=1;fillColor=#ffcccc;strokeColor=#36393d;" vertex="1" parent="1">
          <mxGeometry x="3400" y="-1560" width="80" height="40" as="geometry" />
        </mxCell>
        <mxCell id="JpACnXKjDBH2QXV8zdp0-1049" style="endArrow=none;endFill=0;" edge="1" parent="1" source="JpACnXKjDBH2QXV8zdp0-1041" target="JpACnXKjDBH2QXV8zdp0-1048">
          <mxGeometry relative="1" as="geometry" />
        </mxCell>
        <mxCell id="JpACnXKjDBH2QXV8zdp0-1092" style="rounded=0;orthogonalLoop=1;jettySize=auto;html=1;endArrow=ERone;endFill=0;exitX=0.5;exitY=0;exitDx=0;exitDy=0;" edge="1" parent="1" source="JpACnXKjDBH2QXV8zdp0-1111" target="JpACnXKjDBH2QXV8zdp0-1094">
          <mxGeometry relative="1" as="geometry" />
        </mxCell>
        <mxCell id="JpACnXKjDBH2QXV8zdp0-1094" value="Sales" style="rounded=0;whiteSpace=wrap;html=1;fillColor=#a2d4e6;strokeColor=#63919f;" vertex="1" parent="1">
          <mxGeometry x="3215" y="-1780" width="100" height="60" as="geometry" />
        </mxCell>
        <mxCell id="JpACnXKjDBH2QXV8zdp0-1095" value="&lt;u&gt;SalesID&lt;/u&gt;" style="ellipse;whiteSpace=wrap;html=1;fillColor=#f8cecc;strokeColor=#b85450;" vertex="1" parent="1">
          <mxGeometry x="3210" y="-1870" width="60" height="40" as="geometry" />
        </mxCell>
        <mxCell id="JpACnXKjDBH2QXV8zdp0-1096" style="endArrow=none;endFill=0;" edge="1" parent="1" source="JpACnXKjDBH2QXV8zdp0-1094" target="JpACnXKjDBH2QXV8zdp0-1095">
          <mxGeometry relative="1" as="geometry" />
        </mxCell>
        <mxCell id="JpACnXKjDBH2QXV8zdp0-1097" value="Quantity" style="ellipse;whiteSpace=wrap;html=1;fillColor=#f8cecc;strokeColor=#b85450;" vertex="1" parent="1">
          <mxGeometry x="3295" y="-1870" width="60" height="40" as="geometry" />
        </mxCell>
        <mxCell id="JpACnXKjDBH2QXV8zdp0-1098" style="endArrow=none;endFill=0;" edge="1" parent="1" source="JpACnXKjDBH2QXV8zdp0-1094" target="JpACnXKjDBH2QXV8zdp0-1097">
          <mxGeometry relative="1" as="geometry" />
        </mxCell>
        <mxCell id="JpACnXKjDBH2QXV8zdp0-1111" value="" style="rhombus;whiteSpace=wrap;html=1;fillColor=#ffff88;strokeColor=#36393d;" vertex="1" parent="1">
          <mxGeometry x="3220" y="-1665" width="90" height="70" as="geometry" />
        </mxCell>
        <mxCell id="JpACnXKjDBH2QXV8zdp0-1112" value="PaidWIth" style="text;html=1;align=center;verticalAlign=middle;whiteSpace=wrap;rounded=0;" vertex="1" parent="1">
          <mxGeometry x="3240" y="-1645" width="60" height="35" as="geometry" />
        </mxCell>
        <mxCell id="JpACnXKjDBH2QXV8zdp0-1147" value="PaymtType" style="ellipse;whiteSpace=wrap;html=1;fillColor=#f8cecc;strokeColor=#b85450;" vertex="1" parent="1">
          <mxGeometry x="3510" y="-1700" width="70" height="40" as="geometry" />
        </mxCell>
        <mxCell id="JpACnXKjDBH2QXV8zdp0-1149" value="" style="ellipse;whiteSpace=wrap;html=1;fillColor=none;strokeWidth=1.25;" vertex="1" parent="1">
          <mxGeometry x="3580" y="-1582.5" width="100" height="45" as="geometry" />
        </mxCell>
        <mxCell id="JpACnXKjDBH2QXV8zdp0-1151" style="edgeStyle=orthogonalEdgeStyle;rounded=0;orthogonalLoop=1;jettySize=auto;html=1;exitX=0.5;exitY=1;exitDx=0;exitDy=0;" edge="1" parent="1" source="JpACnXKjDBH2QXV8zdp0-1149" target="JpACnXKjDBH2QXV8zdp0-1149">
          <mxGeometry relative="1" as="geometry" />
        </mxCell>
      </root>
    </mxGraphModel>
  </diagram>
</mxfile>
